<?xml version="1.0" encoding="utf-8" standalone="no"?>
<!DOCTYPE svg PUBLIC "-//W3C//DTD SVG 1.1//EN"
  "http://www.w3.org/Graphics/SVG/1.1/DTD/svg11.dtd">
<!-- Created with matplotlib (https://matplotlib.org/) -->
<svg height="720pt" version="1.1" viewBox="0 0 1008 720" width="1008pt" xmlns="http://www.w3.org/2000/svg" xmlns:xlink="http://www.w3.org/1999/xlink">
 <metadata>
  <rdf:RDF xmlns:cc="http://creativecommons.org/ns#" xmlns:dc="http://purl.org/dc/elements/1.1/" xmlns:rdf="http://www.w3.org/1999/02/22-rdf-syntax-ns#">
   <cc:Work>
    <dc:type rdf:resource="http://purl.org/dc/dcmitype/StillImage"/>
    <dc:date>2021-01-19T22:12:39.437728</dc:date>
    <dc:format>image/svg+xml</dc:format>
    <dc:creator>
     <cc:Agent>
      <dc:title>Matplotlib v3.3.1, https://matplotlib.org/</dc:title>
     </cc:Agent>
    </dc:creator>
   </cc:Work>
  </rdf:RDF>
 </metadata>
 <defs>
  <style type="text/css">*{stroke-linecap:butt;stroke-linejoin:round;}</style>
 </defs>
 <g id="figure_1">
  <g id="patch_1">
   <path d="M 0 720 
L 1008 720 
L 1008 0 
L 0 0 
z
" style="fill:#ffffff;"/>
  </g>
  <g id="axes_1">
   <g id="patch_2">
    <path d="M 126 640.8 
L 907.2 640.8 
L 907.2 86.4 
L 126 86.4 
z
" style="fill:#ffffff;"/>
   </g>
   <g id="matplotlib.axis_1">
    <g id="xtick_1">
     <g id="line2d_1">
      <path clip-path="url(#pbda1dbd9a5)" d="M 161.509091 640.8 
L 161.509091 86.4 
" style="fill:none;stroke:#cccccc;stroke-linecap:round;"/>
     </g>
     <g id="text_1">
      <!-- 0 -->
      <g style="fill:#262626;" transform="translate(157.838872 659.748312)scale(0.132 -0.132)">
       <defs>
        <path d="M 4.15625 35.296875 
Q 4.15625 48 6.765625 55.734375 
Q 9.375 63.484375 14.515625 67.671875 
Q 19.671875 71.875 27.484375 71.875 
Q 33.25 71.875 37.59375 69.546875 
Q 41.9375 67.234375 44.765625 62.859375 
Q 47.609375 58.5 49.21875 52.21875 
Q 50.828125 45.953125 50.828125 35.296875 
Q 50.828125 22.703125 48.234375 14.96875 
Q 45.65625 7.234375 40.5 3 
Q 35.359375 -1.21875 27.484375 -1.21875 
Q 17.140625 -1.21875 11.234375 6.203125 
Q 4.15625 15.140625 4.15625 35.296875 
z
M 13.1875 35.296875 
Q 13.1875 17.671875 17.3125 11.828125 
Q 21.4375 6 27.484375 6 
Q 33.546875 6 37.671875 11.859375 
Q 41.796875 17.71875 41.796875 35.296875 
Q 41.796875 52.984375 37.671875 58.78125 
Q 33.546875 64.59375 27.390625 64.59375 
Q 21.34375 64.59375 17.71875 59.46875 
Q 13.1875 52.9375 13.1875 35.296875 
z
" id="ArialMT-48"/>
       </defs>
       <use xlink:href="#ArialMT-48"/>
      </g>
     </g>
    </g>
    <g id="xtick_2">
     <g id="line2d_2">
      <path clip-path="url(#pbda1dbd9a5)" d="M 304.980165 640.8 
L 304.980165 86.4 
" style="fill:none;stroke:#cccccc;stroke-linecap:round;"/>
     </g>
     <g id="text_2">
      <!-- 20 -->
      <g style="fill:#262626;" transform="translate(297.639728 659.748312)scale(0.132 -0.132)">
       <defs>
        <path d="M 50.34375 8.453125 
L 50.34375 0 
L 3.03125 0 
Q 2.9375 3.171875 4.046875 6.109375 
Q 5.859375 10.9375 9.828125 15.625 
Q 13.8125 20.3125 21.34375 26.46875 
Q 33.015625 36.03125 37.109375 41.625 
Q 41.21875 47.21875 41.21875 52.203125 
Q 41.21875 57.421875 37.46875 61 
Q 33.734375 64.59375 27.734375 64.59375 
Q 21.390625 64.59375 17.578125 60.78125 
Q 13.765625 56.984375 13.71875 50.25 
L 4.6875 51.171875 
Q 5.609375 61.28125 11.65625 66.578125 
Q 17.71875 71.875 27.9375 71.875 
Q 38.234375 71.875 44.234375 66.15625 
Q 50.25 60.453125 50.25 52 
Q 50.25 47.703125 48.484375 43.546875 
Q 46.734375 39.40625 42.65625 34.8125 
Q 38.578125 30.21875 29.109375 22.21875 
Q 21.1875 15.578125 18.9375 13.203125 
Q 16.703125 10.84375 15.234375 8.453125 
z
" id="ArialMT-50"/>
       </defs>
       <use xlink:href="#ArialMT-50"/>
       <use x="55.615234" xlink:href="#ArialMT-48"/>
      </g>
     </g>
    </g>
    <g id="xtick_3">
     <g id="line2d_3">
      <path clip-path="url(#pbda1dbd9a5)" d="M 448.45124 640.8 
L 448.45124 86.4 
" style="fill:none;stroke:#cccccc;stroke-linecap:round;"/>
     </g>
     <g id="text_3">
      <!-- 40 -->
      <g style="fill:#262626;" transform="translate(441.110802 659.748312)scale(0.132 -0.132)">
       <defs>
        <path d="M 32.328125 0 
L 32.328125 17.140625 
L 1.265625 17.140625 
L 1.265625 25.203125 
L 33.9375 71.578125 
L 41.109375 71.578125 
L 41.109375 25.203125 
L 50.78125 25.203125 
L 50.78125 17.140625 
L 41.109375 17.140625 
L 41.109375 0 
z
M 32.328125 25.203125 
L 32.328125 57.46875 
L 9.90625 25.203125 
z
" id="ArialMT-52"/>
       </defs>
       <use xlink:href="#ArialMT-52"/>
       <use x="55.615234" xlink:href="#ArialMT-48"/>
      </g>
     </g>
    </g>
    <g id="xtick_4">
     <g id="line2d_4">
      <path clip-path="url(#pbda1dbd9a5)" d="M 591.922314 640.8 
L 591.922314 86.4 
" style="fill:none;stroke:#cccccc;stroke-linecap:round;"/>
     </g>
     <g id="text_4">
      <!-- 60 -->
      <g style="fill:#262626;" transform="translate(584.581877 659.748312)scale(0.132 -0.132)">
       <defs>
        <path d="M 49.75 54.046875 
L 41.015625 53.375 
Q 39.84375 58.546875 37.703125 60.890625 
Q 34.125 64.65625 28.90625 64.65625 
Q 24.703125 64.65625 21.53125 62.3125 
Q 17.390625 59.28125 14.984375 53.46875 
Q 12.59375 47.65625 12.5 36.921875 
Q 15.671875 41.75 20.265625 44.09375 
Q 24.859375 46.4375 29.890625 46.4375 
Q 38.671875 46.4375 44.84375 39.96875 
Q 51.03125 33.5 51.03125 23.25 
Q 51.03125 16.5 48.125 10.71875 
Q 45.21875 4.9375 40.140625 1.859375 
Q 35.0625 -1.21875 28.609375 -1.21875 
Q 17.625 -1.21875 10.6875 6.859375 
Q 3.765625 14.9375 3.765625 33.5 
Q 3.765625 54.25 11.421875 63.671875 
Q 18.109375 71.875 29.4375 71.875 
Q 37.890625 71.875 43.28125 67.140625 
Q 48.6875 62.40625 49.75 54.046875 
z
M 13.875 23.1875 
Q 13.875 18.65625 15.796875 14.5 
Q 17.71875 10.359375 21.1875 8.171875 
Q 24.65625 6 28.46875 6 
Q 34.03125 6 38.03125 10.484375 
Q 42.046875 14.984375 42.046875 22.703125 
Q 42.046875 30.125 38.078125 34.390625 
Q 34.125 38.671875 28.125 38.671875 
Q 22.171875 38.671875 18.015625 34.390625 
Q 13.875 30.125 13.875 23.1875 
z
" id="ArialMT-54"/>
       </defs>
       <use xlink:href="#ArialMT-54"/>
       <use x="55.615234" xlink:href="#ArialMT-48"/>
      </g>
     </g>
    </g>
    <g id="xtick_5">
     <g id="line2d_5">
      <path clip-path="url(#pbda1dbd9a5)" d="M 735.393388 640.8 
L 735.393388 86.4 
" style="fill:none;stroke:#cccccc;stroke-linecap:round;"/>
     </g>
     <g id="text_5">
      <!-- 80 -->
      <g style="fill:#262626;" transform="translate(728.052951 659.748312)scale(0.132 -0.132)">
       <defs>
        <path d="M 17.671875 38.8125 
Q 12.203125 40.828125 9.5625 44.53125 
Q 6.9375 48.25 6.9375 53.421875 
Q 6.9375 61.234375 12.546875 66.546875 
Q 18.171875 71.875 27.484375 71.875 
Q 36.859375 71.875 42.578125 66.421875 
Q 48.296875 60.984375 48.296875 53.171875 
Q 48.296875 48.1875 45.671875 44.5 
Q 43.0625 40.828125 37.75 38.8125 
Q 44.34375 36.671875 47.78125 31.875 
Q 51.21875 27.09375 51.21875 20.453125 
Q 51.21875 11.28125 44.71875 5.03125 
Q 38.234375 -1.21875 27.640625 -1.21875 
Q 17.046875 -1.21875 10.546875 5.046875 
Q 4.046875 11.328125 4.046875 20.703125 
Q 4.046875 27.6875 7.59375 32.390625 
Q 11.140625 37.109375 17.671875 38.8125 
z
M 15.921875 53.71875 
Q 15.921875 48.640625 19.1875 45.40625 
Q 22.46875 42.1875 27.6875 42.1875 
Q 32.765625 42.1875 36.015625 45.375 
Q 39.265625 48.578125 39.265625 53.21875 
Q 39.265625 58.0625 35.90625 61.359375 
Q 32.5625 64.65625 27.59375 64.65625 
Q 22.5625 64.65625 19.234375 61.421875 
Q 15.921875 58.203125 15.921875 53.71875 
z
M 13.09375 20.65625 
Q 13.09375 16.890625 14.875 13.375 
Q 16.65625 9.859375 20.171875 7.921875 
Q 23.6875 6 27.734375 6 
Q 34.03125 6 38.125 10.046875 
Q 42.234375 14.109375 42.234375 20.359375 
Q 42.234375 26.703125 38.015625 30.859375 
Q 33.796875 35.015625 27.4375 35.015625 
Q 21.234375 35.015625 17.15625 30.90625 
Q 13.09375 26.8125 13.09375 20.65625 
z
" id="ArialMT-56"/>
       </defs>
       <use xlink:href="#ArialMT-56"/>
       <use x="55.615234" xlink:href="#ArialMT-48"/>
      </g>
     </g>
    </g>
    <g id="xtick_6">
     <g id="line2d_6">
      <path clip-path="url(#pbda1dbd9a5)" d="M 878.864463 640.8 
L 878.864463 86.4 
" style="fill:none;stroke:#cccccc;stroke-linecap:round;"/>
     </g>
     <g id="text_6">
      <!-- 100 -->
      <g style="fill:#262626;" transform="translate(867.853807 659.748312)scale(0.132 -0.132)">
       <defs>
        <path d="M 37.25 0 
L 28.46875 0 
L 28.46875 56 
Q 25.296875 52.984375 20.140625 49.953125 
Q 14.984375 46.921875 10.890625 45.40625 
L 10.890625 53.90625 
Q 18.265625 57.375 23.78125 62.296875 
Q 29.296875 67.234375 31.59375 71.875 
L 37.25 71.875 
z
" id="ArialMT-49"/>
       </defs>
       <use xlink:href="#ArialMT-49"/>
       <use x="55.615234" xlink:href="#ArialMT-48"/>
       <use x="111.230469" xlink:href="#ArialMT-48"/>
      </g>
     </g>
    </g>
   </g>
   <g id="matplotlib.axis_2">
    <g id="ytick_1">
     <g id="line2d_7">
      <path clip-path="url(#pbda1dbd9a5)" d="M 126 627.748914 
L 907.2 627.748914 
" style="fill:none;stroke:#cccccc;stroke-linecap:round;"/>
     </g>
     <g id="text_7">
      <!-- 0.7 -->
      <g style="fill:#262626;" transform="translate(98.152 632.47307)scale(0.132 -0.132)">
       <defs>
        <path d="M 9.078125 0 
L 9.078125 10.015625 
L 19.09375 10.015625 
L 19.09375 0 
z
" id="ArialMT-46"/>
        <path d="M 4.734375 62.203125 
L 4.734375 70.65625 
L 51.078125 70.65625 
L 51.078125 63.8125 
Q 44.234375 56.546875 37.515625 44.484375 
Q 30.8125 32.421875 27.15625 19.671875 
Q 24.515625 10.6875 23.78125 0 
L 14.75 0 
Q 14.890625 8.453125 18.0625 20.40625 
Q 21.234375 32.375 27.171875 43.484375 
Q 33.109375 54.59375 39.796875 62.203125 
z
" id="ArialMT-55"/>
       </defs>
       <use xlink:href="#ArialMT-48"/>
       <use x="55.615234" xlink:href="#ArialMT-46"/>
       <use x="83.398438" xlink:href="#ArialMT-55"/>
      </g>
     </g>
    </g>
    <g id="ytick_2">
     <g id="line2d_8">
      <path clip-path="url(#pbda1dbd9a5)" d="M 126 541.75669 
L 907.2 541.75669 
" style="fill:none;stroke:#cccccc;stroke-linecap:round;"/>
     </g>
     <g id="text_8">
      <!-- 0.8 -->
      <g style="fill:#262626;" transform="translate(98.152 546.480846)scale(0.132 -0.132)">
       <use xlink:href="#ArialMT-48"/>
       <use x="55.615234" xlink:href="#ArialMT-46"/>
       <use x="83.398438" xlink:href="#ArialMT-56"/>
      </g>
     </g>
    </g>
    <g id="ytick_3">
     <g id="line2d_9">
      <path clip-path="url(#pbda1dbd9a5)" d="M 126 455.764466 
L 907.2 455.764466 
" style="fill:none;stroke:#cccccc;stroke-linecap:round;"/>
     </g>
     <g id="text_9">
      <!-- 0.9 -->
      <g style="fill:#262626;" transform="translate(98.152 460.488622)scale(0.132 -0.132)">
       <defs>
        <path d="M 5.46875 16.546875 
L 13.921875 17.328125 
Q 14.984375 11.375 18.015625 8.6875 
Q 21.046875 6 25.78125 6 
Q 29.828125 6 32.875 7.859375 
Q 35.9375 9.71875 37.890625 12.8125 
Q 39.84375 15.921875 41.15625 21.1875 
Q 42.484375 26.46875 42.484375 31.9375 
Q 42.484375 32.515625 42.4375 33.6875 
Q 39.796875 29.5 35.234375 26.875 
Q 30.671875 24.265625 25.34375 24.265625 
Q 16.453125 24.265625 10.296875 30.703125 
Q 4.15625 37.15625 4.15625 47.703125 
Q 4.15625 58.59375 10.578125 65.234375 
Q 17 71.875 26.65625 71.875 
Q 33.640625 71.875 39.421875 68.109375 
Q 45.21875 64.359375 48.21875 57.390625 
Q 51.21875 50.4375 51.21875 37.25 
Q 51.21875 23.53125 48.234375 15.40625 
Q 45.265625 7.28125 39.375 3.03125 
Q 33.5 -1.21875 25.59375 -1.21875 
Q 17.1875 -1.21875 11.859375 3.4375 
Q 6.546875 8.109375 5.46875 16.546875 
z
M 41.453125 48.140625 
Q 41.453125 55.71875 37.421875 60.15625 
Q 33.40625 64.59375 27.734375 64.59375 
Q 21.875 64.59375 17.53125 59.8125 
Q 13.1875 55.03125 13.1875 47.40625 
Q 13.1875 40.578125 17.3125 36.296875 
Q 21.4375 32.03125 27.484375 32.03125 
Q 33.59375 32.03125 37.515625 36.296875 
Q 41.453125 40.578125 41.453125 48.140625 
z
" id="ArialMT-57"/>
       </defs>
       <use xlink:href="#ArialMT-48"/>
       <use x="55.615234" xlink:href="#ArialMT-46"/>
       <use x="83.398438" xlink:href="#ArialMT-57"/>
      </g>
     </g>
    </g>
    <g id="ytick_4">
     <g id="line2d_10">
      <path clip-path="url(#pbda1dbd9a5)" d="M 126 369.772242 
L 907.2 369.772242 
" style="fill:none;stroke:#cccccc;stroke-linecap:round;"/>
     </g>
     <g id="text_10">
      <!-- 1.0 -->
      <g style="fill:#262626;" transform="translate(98.152 374.496399)scale(0.132 -0.132)">
       <use xlink:href="#ArialMT-49"/>
       <use x="55.615234" xlink:href="#ArialMT-46"/>
       <use x="83.398438" xlink:href="#ArialMT-48"/>
      </g>
     </g>
    </g>
    <g id="ytick_5">
     <g id="line2d_11">
      <path clip-path="url(#pbda1dbd9a5)" d="M 126 283.780019 
L 907.2 283.780019 
" style="fill:none;stroke:#cccccc;stroke-linecap:round;"/>
     </g>
     <g id="text_11">
      <!-- 1.1 -->
      <g style="fill:#262626;" transform="translate(98.152 288.504175)scale(0.132 -0.132)">
       <use xlink:href="#ArialMT-49"/>
       <use x="55.615234" xlink:href="#ArialMT-46"/>
       <use x="83.398438" xlink:href="#ArialMT-49"/>
      </g>
     </g>
    </g>
    <g id="ytick_6">
     <g id="line2d_12">
      <path clip-path="url(#pbda1dbd9a5)" d="M 126 197.787795 
L 907.2 197.787795 
" style="fill:none;stroke:#cccccc;stroke-linecap:round;"/>
     </g>
     <g id="text_12">
      <!-- 1.2 -->
      <g style="fill:#262626;" transform="translate(98.152 202.511951)scale(0.132 -0.132)">
       <use xlink:href="#ArialMT-49"/>
       <use x="55.615234" xlink:href="#ArialMT-46"/>
       <use x="83.398438" xlink:href="#ArialMT-50"/>
      </g>
     </g>
    </g>
    <g id="ytick_7">
     <g id="line2d_13">
      <path clip-path="url(#pbda1dbd9a5)" d="M 126 111.795571 
L 907.2 111.795571 
" style="fill:none;stroke:#cccccc;stroke-linecap:round;"/>
     </g>
     <g id="text_13">
      <!-- 1.3 -->
      <g style="fill:#262626;" transform="translate(98.152 116.519727)scale(0.132 -0.132)">
       <defs>
        <path d="M 4.203125 18.890625 
L 12.984375 20.0625 
Q 14.5 12.59375 18.140625 9.296875 
Q 21.78125 6 27 6 
Q 33.203125 6 37.46875 10.296875 
Q 41.75 14.59375 41.75 20.953125 
Q 41.75 27 37.796875 30.921875 
Q 33.84375 34.859375 27.734375 34.859375 
Q 25.25 34.859375 21.53125 33.890625 
L 22.515625 41.609375 
Q 23.390625 41.5 23.921875 41.5 
Q 29.546875 41.5 34.03125 44.421875 
Q 38.53125 47.359375 38.53125 53.46875 
Q 38.53125 58.296875 35.25 61.46875 
Q 31.984375 64.65625 26.8125 64.65625 
Q 21.6875 64.65625 18.265625 61.421875 
Q 14.84375 58.203125 13.875 51.765625 
L 5.078125 53.328125 
Q 6.6875 62.15625 12.390625 67.015625 
Q 18.109375 71.875 26.609375 71.875 
Q 32.46875 71.875 37.390625 69.359375 
Q 42.328125 66.84375 44.9375 62.5 
Q 47.5625 58.15625 47.5625 53.265625 
Q 47.5625 48.640625 45.0625 44.828125 
Q 42.578125 41.015625 37.703125 38.765625 
Q 44.046875 37.3125 47.5625 32.6875 
Q 51.078125 28.078125 51.078125 21.140625 
Q 51.078125 11.765625 44.234375 5.25 
Q 37.40625 -1.265625 26.953125 -1.265625 
Q 17.53125 -1.265625 11.296875 4.34375 
Q 5.078125 9.96875 4.203125 18.890625 
z
" id="ArialMT-51"/>
       </defs>
       <use xlink:href="#ArialMT-49"/>
       <use x="55.615234" xlink:href="#ArialMT-46"/>
       <use x="83.398438" xlink:href="#ArialMT-51"/>
      </g>
     </g>
    </g>
   </g>
   <g id="line2d_14">
    <path clip-path="url(#pbda1dbd9a5)" d="M 161.509091 329.23735 
L 168.682645 345.760387 
L 175.856198 336.883587 
L 183.029752 311.200432 
L 190.203306 338.375994 
L 197.37686 345.569094 
L 204.550413 356.852935 
L 211.723967 354.585819 
L 218.897521 355.713038 
L 226.071074 373.83971 
L 233.244628 368.791539 
L 240.418182 370.206159 
L 247.591736 362.612535 
L 254.765289 386.826759 
L 261.938843 379.03847 
L 269.112397 381.10517 
L 276.28595 381.102409 
L 283.459504 390.582939 
L 290.633058 364.291753 
L 297.806612 401.07547 
L 304.980165 381.897108 
L 312.153719 399.073039 
L 319.327273 379.519758 
L 326.500826 389.304711 
L 333.67438 389.891412 
L 340.847934 407.465815 
L 348.021488 358.013608 
L 355.195041 403.195751 
L 362.368595 393.730852 
L 369.542149 370.598352 
L 376.715702 411.558601 
L 383.889256 417.421805 
L 391.06281 414.968782 
L 398.236364 403.163318 
L 405.409917 413.806832 
L 412.583471 410.538486 
L 419.757025 422.677485 
L 426.930579 394.602504 
L 434.104132 428.24204 
L 441.277686 405.074394 
L 448.45124 422.976284 
L 455.624793 427.364244 
L 462.798347 418.006706 
L 469.971901 432.552091 
L 477.145455 409.983563 
L 484.319008 410.824263 
L 491.492562 431.657961 
L 498.666116 401.112842 
L 505.839669 441.062418 
L 513.013223 436.305584 
L 520.186777 439.283689 
L 527.360331 415.980782 
L 534.533884 430.861029 
L 541.707438 445.282821 
L 548.880992 436.909211 
L 556.054545 412.191989 
L 563.228099 443.47168 
L 570.401653 426.442499 
L 577.575207 441.236854 
L 584.74876 450.127983 
L 591.922314 462.340747 
L 599.095868 447.722699 
L 606.269421 454.339867 
L 613.442975 443.988402 
L 620.616529 443.892331 
L 627.790083 432.2267 
L 634.963636 453.775832 
L 642.13719 445.129493 
L 649.310744 468.354825 
L 656.484298 441.190669 
L 663.657851 431.664685 
L 670.831405 439.088603 
L 678.004959 437.110933 
L 685.178512 474.937495 
L 692.352066 467.495694 
L 699.52562 445.873719 
L 706.699174 479.093777 
L 713.872727 455.942054 
L 721.046281 483.795039 
L 728.219835 464.031958 
L 735.393388 496.308147 
L 742.566942 481.983482 
L 749.740496 458.558998 
L 756.91405 454.816707 
L 764.087603 450.638997 
L 771.261157 491.811771 
L 778.434711 479.035909 
L 785.608264 496.433175 
L 792.781818 460.766668 
L 799.955372 484.06536 
L 807.128926 516.960495 
L 814.302479 475.167696 
L 821.476033 471.012966 
L 828.649587 497.657394 
L 835.82314 513.502413 
L 842.996694 512.555968 
L 850.170248 516.681568 
L 857.343802 508.972939 
L 864.517355 473.477409 
L 871.690909 535.278905 
" style="fill:none;stroke:#01befe;stroke-linecap:round;stroke-width:1.5;"/>
   </g>
   <g id="line2d_15">
    <path clip-path="url(#pbda1dbd9a5)" d="M 161.509091 364.8179 
L 168.682645 317.229237 
L 175.856198 333.927012 
L 183.029752 337.031919 
L 190.203306 357.928734 
L 197.37686 370.514186 
L 204.550413 375.832974 
L 211.723967 382.847092 
L 218.897521 382.804586 
L 226.071074 387.69368 
L 233.244628 382.860231 
L 240.418182 389.139342 
L 247.591736 393.933891 
L 254.765289 414.081885 
L 261.938843 403.426189 
L 269.112397 401.476946 
L 276.28595 409.178541 
L 283.459504 404.761649 
L 290.633058 401.121768 
L 297.806612 425.749653 
L 304.980165 374.191214 
L 312.153719 421.362984 
L 319.327273 414.956638 
L 326.500826 414.798011 
L 333.67438 408.828124 
L 340.847934 445.283301 
L 348.021488 404.518088 
L 355.195041 435.127647 
L 362.368595 439.127373 
L 369.542149 432.883653 
L 376.715702 449.870591 
L 383.889256 435.658599 
L 391.06281 434.040018 
L 398.236364 431.866971 
L 405.409917 429.599323 
L 412.583471 455.750112 
L 419.757025 441.259173 
L 426.930579 427.290588 
L 434.104132 452.188848 
L 441.277686 437.720711 
L 448.45124 430.032766 
L 455.624793 462.069349 
L 462.798347 442.331303 
L 469.971901 456.712395 
L 477.145455 464.027132 
L 484.319008 463.631005 
L 491.492562 472.656667 
L 498.666116 470.332644 
L 505.839669 489.201497 
L 513.013223 470.385156 
L 520.186777 447.44167 
L 527.360331 478.508623 
L 534.533884 473.127764 
L 541.707438 484.668861 
L 548.880992 497.532844 
L 556.054545 477.073032 
L 563.228099 484.649158 
L 570.401653 483.289804 
L 577.575207 486.46347 
L 584.74876 491.637889 
L 591.922314 487.209619 
L 599.095868 517.322949 
L 606.269421 522.321492 
L 613.442975 505.986878 
L 620.616529 504.996237 
L 627.790083 515.600273 
L 634.963636 534.257482 
L 642.13719 514.180453 
L 649.310744 543.586339 
L 656.484298 538.484105 
L 663.657851 517.346121 
L 670.831405 536.592511 
L 678.004959 550.214286 
L 685.178512 538.769025 
L 692.352066 535.948417 
L 699.52562 529.150825 
L 706.699174 566.237494 
L 713.872727 555.83059 
L 721.046281 511.734785 
L 728.219835 547.779948 
L 735.393388 570.609237 
L 742.566942 574.480199 
L 749.740496 557.852718 
L 756.91405 581.729551 
L 764.087603 548.102532 
L 771.261157 577.628733 
L 778.434711 563.42523 
L 785.608264 603.685961 
L 792.781818 600.621997 
L 799.955372 597.644531 
L 807.128926 599.730695 
L 814.302479 561.083582 
L 821.476033 613.670518 
L 828.649587 574.878705 
L 835.82314 607.544552 
L 842.996694 591.951122 
L 850.170248 614.623367 
L 857.343802 604.919026 
L 864.517355 574.003978 
L 871.690909 598.504129 
" style="fill:none;stroke:#ff0000;stroke-linecap:round;stroke-width:3;"/>
   </g>
   <g id="line2d_16">
    <path clip-path="url(#pbda1dbd9a5)" d="M 161.509091 445.353141 
L 168.682645 201.022836 
L 175.856198 220.211448 
L 183.029752 214.540781 
L 190.203306 211.943442 
L 197.37686 214.542423 
L 204.550413 224.298213 
L 211.723967 224.244261 
L 218.897521 227.243742 
L 226.071074 231.972219 
L 233.244628 218.354982 
L 240.418182 232.154993 
L 247.591736 241.292059 
L 254.765289 237.81195 
L 261.938843 248.239365 
L 269.112397 237.882814 
L 276.28595 244.033377 
L 283.459504 236.578333 
L 290.633058 239.44583 
L 297.806612 252.144952 
L 304.980165 252.234274 
L 312.153719 260.322155 
L 319.327273 255.579952 
L 326.500826 259.220083 
L 333.67438 251.276292 
L 340.847934 268.430626 
L 348.021488 265.006935 
L 355.195041 273.841401 
L 362.368595 271.888436 
L 369.542149 262.726686 
L 376.715702 267.66433 
L 383.889256 273.105463 
L 391.06281 273.317841 
L 398.236364 273.334158 
L 405.409917 265.807471 
L 412.583471 281.195964 
L 419.757025 275.608748 
L 426.930579 282.501012 
L 434.104132 268.348998 
L 441.277686 276.26803 
L 448.45124 285.011503 
L 455.624793 272.149721 
L 462.798347 290.992186 
L 469.971901 289.302045 
L 477.145455 280.979286 
L 484.319008 293.467878 
L 491.492562 293.244465 
L 498.666116 292.251184 
L 505.839669 304.910226 
L 513.013223 295.678143 
L 520.186777 272.535874 
L 527.360331 295.707687 
L 534.533884 299.212592 
L 541.707438 307.523365 
L 548.880992 309.96644 
L 556.054545 290.84957 
L 563.228099 314.248277 
L 570.401653 303.370313 
L 577.575207 306.278456 
L 584.74876 307.439182 
L 591.922314 296.888417 
L 599.095868 289.16427 
L 606.269421 288.442919 
L 613.442975 310.641849 
L 620.616529 304.987475 
L 627.790083 314.623149 
L 634.963636 321.130329 
L 642.13719 326.126294 
L 649.310744 324.847752 
L 656.484298 275.142158 
L 663.657851 323.527847 
L 670.831405 321.192049 
L 678.004959 312.377611 
L 685.178512 306.595386 
L 692.352066 321.124551 
L 699.52562 317.85228 
L 706.699174 312.302934 
L 713.872727 319.068188 
L 721.046281 323.205322 
L 728.219835 320.1286 
L 735.393388 326.3433 
L 742.566942 341.495238 
L 749.740496 340.216049 
L 756.91405 332.587666 
L 764.087603 316.889056 
L 771.261157 317.129738 
L 778.434711 333.54223 
L 785.608264 323.304388 
L 792.781818 328.077043 
L 799.955372 325.253229 
L 807.128926 328.780344 
L 814.302479 343.257036 
L 821.476033 320.912816 
L 828.649587 350.25075 
L 835.82314 351.292549 
L 842.996694 331.585885 
L 850.170248 342.765394 
L 857.343802 349.842975 
L 864.517355 335.590362 
L 871.690909 344.372625 
" style="fill:none;stroke:#0000ff;stroke-linecap:round;stroke-width:1.5;"/>
   </g>
   <g id="line2d_17">
    <path clip-path="url(#pbda1dbd9a5)" d="M 161.509091 319.777832 
L 168.682645 302.119053 
L 175.856198 318.110405 
L 183.029752 326.561104 
L 190.203306 323.450072 
L 197.37686 360.554058 
L 204.550413 353.196475 
L 211.723967 369.244854 
L 218.897521 355.122983 
L 226.071074 353.361465 
L 233.244628 377.845946 
L 240.418182 370.011063 
L 247.591736 365.829188 
L 254.765289 382.473474 
L 261.938843 389.484217 
L 269.112397 383.985883 
L 276.28595 384.701967 
L 283.459504 386.690693 
L 290.633058 396.293617 
L 297.806612 406.102357 
L 304.980165 375.859009 
L 312.153719 399.668405 
L 319.327273 372.512435 
L 326.500826 410.684352 
L 333.67438 395.526219 
L 340.847934 391.085224 
L 348.021488 405.173218 
L 355.195041 389.425933 
L 362.368595 424.654537 
L 369.542149 408.510837 
L 376.715702 391.864774 
L 383.889256 431.079227 
L 391.06281 383.455904 
L 398.236364 403.57235 
L 405.409917 434.021102 
L 412.583471 425.312341 
L 419.757025 415.352876 
L 426.930579 432.772737 
L 434.104132 422.262702 
L 441.277686 443.414957 
L 448.45124 444.698419 
L 455.624793 448.505611 
L 462.798347 436.347139 
L 469.971901 450.705627 
L 477.145455 439.263249 
L 484.319008 450.257924 
L 491.492562 436.637824 
L 498.666116 446.912065 
L 505.839669 437.935156 
L 513.013223 446.455246 
L 520.186777 414.071321 
L 527.360331 456.70643 
L 534.533884 464.848837 
L 541.707438 456.736798 
L 548.880992 458.616129 
L 556.054545 467.187778 
L 563.228099 469.397193 
L 570.401653 475.356345 
L 577.575207 467.449175 
L 584.74876 481.525621 
L 591.922314 478.631806 
L 599.095868 455.459271 
L 606.269421 488.10763 
L 613.442975 506.437242 
L 620.616529 496.960821 
L 627.790083 491.245637 
L 634.963636 477.305274 
L 642.13719 502.888221 
L 649.310744 472.165059 
L 656.484298 507.806809 
L 663.657851 494.539627 
L 670.831405 491.666724 
L 678.004959 515.623454 
L 685.178512 531.62883 
L 692.352066 489.326594 
L 699.52562 528.373218 
L 706.699174 527.928541 
L 713.872727 491.751791 
L 721.046281 551.730768 
L 728.219835 544.30763 
L 735.393388 536.869622 
L 742.566942 542.940728 
L 749.740496 521.78873 
L 756.91405 561.462615 
L 764.087603 541.303455 
L 771.261157 577.564267 
L 778.434711 549.787346 
L 785.608264 544.263 
L 792.781818 523.377523 
L 799.955372 548.632672 
L 807.128926 557.406384 
L 814.302479 596.893025 
L 821.476033 565.283698 
L 828.649587 594.002447 
L 835.82314 596.97348 
L 842.996694 615.6 
L 850.170248 590.699042 
L 857.343802 600.613838 
L 864.517355 603.93658 
L 871.690909 598.270319 
" style="fill:none;stroke:#008000;stroke-linecap:round;stroke-width:1.5;"/>
   </g>
   <g id="line2d_18">
    <path clip-path="url(#pbda1dbd9a5)" d="M 161.509091 111.6 
L 168.682645 327.430846 
L 175.856198 338.968307 
L 183.029752 360.594542 
L 190.203306 322.339507 
L 197.37686 357.483576 
L 204.550413 359.311717 
L 211.723967 364.134155 
L 218.897521 369.174152 
L 226.071074 367.854549 
L 233.244628 377.371294 
L 240.418182 364.028654 
L 247.591736 375.20928 
L 254.765289 369.671346 
L 261.938843 369.449499 
L 269.112397 365.127381 
L 276.28595 373.588846 
L 283.459504 383.5603 
L 290.633058 391.522529 
L 297.806612 387.471478 
L 304.980165 386.999037 
L 312.153719 385.0677 
L 319.327273 407.861171 
L 326.500826 395.189746 
L 333.67438 381.188871 
L 340.847934 403.308809 
L 348.021488 394.537391 
L 355.195041 376.192242 
L 362.368595 383.625828 
L 369.542149 408.732046 
L 376.715702 405.027581 
L 383.889256 397.300085 
L 391.06281 391.331111 
L 398.236364 406.595155 
L 405.409917 424.32157 
L 412.583471 406.832644 
L 419.757025 412.796053 
L 426.930579 418.249369 
L 434.104132 420.39051 
L 441.277686 409.393702 
L 448.45124 427.105183 
L 455.624793 393.758298 
L 462.798347 410.706735 
L 469.971901 437.607507 
L 477.145455 405.005757 
L 484.319008 416.583238 
L 491.492562 416.886877 
L 498.666116 415.837568 
L 505.839669 440.668746 
L 513.013223 405.027353 
L 520.186777 431.553831 
L 527.360331 440.990623 
L 534.533884 417.517236 
L 541.707438 431.413235 
L 548.880992 442.730131 
L 556.054545 431.636014 
L 563.228099 448.63129 
L 570.401653 442.981676 
L 577.575207 433.392139 
L 584.74876 433.440385 
L 591.922314 463.926747 
L 599.095868 457.911778 
L 606.269421 455.684198 
L 613.442975 460.831693 
L 620.616529 459.062941 
L 627.790083 447.2688 
L 634.963636 469.052799 
L 642.13719 462.130761 
L 649.310744 451.163403 
L 656.484298 446.676102 
L 663.657851 473.335913 
L 670.831405 455.221636 
L 678.004959 476.133297 
L 685.178512 427.542866 
L 692.352066 476.667348 
L 699.52562 481.35215 
L 706.699174 439.322152 
L 713.872727 461.574083 
L 721.046281 461.888323 
L 728.219835 478.964533 
L 735.393388 478.628639 
L 742.566942 491.808313 
L 749.740496 493.550717 
L 756.91405 468.927872 
L 764.087603 483.929197 
L 771.261157 495.861551 
L 778.434711 490.998193 
L 785.608264 503.860711 
L 792.781818 505.940597 
L 799.955372 487.828597 
L 807.128926 500.090246 
L 814.302479 488.462473 
L 821.476033 512.03158 
L 828.649587 487.455067 
L 835.82314 523.896052 
L 842.996694 500.504931 
L 850.170248 516.508686 
L 857.343802 497.149651 
L 864.517355 497.724304 
L 871.690909 522.669019 
" style="fill:none;stroke:#ffff00;stroke-linecap:round;stroke-width:1.5;"/>
   </g>
   <g id="patch_3">
    <path d="M 126 640.8 
L 126 86.4 
" style="fill:none;stroke:#cccccc;stroke-linecap:square;stroke-linejoin:miter;stroke-width:1.25;"/>
   </g>
   <g id="patch_4">
    <path d="M 907.2 640.8 
L 907.2 86.4 
" style="fill:none;stroke:#cccccc;stroke-linecap:square;stroke-linejoin:miter;stroke-width:1.25;"/>
   </g>
   <g id="patch_5">
    <path d="M 126 640.8 
L 907.2 640.8 
" style="fill:none;stroke:#cccccc;stroke-linecap:square;stroke-linejoin:miter;stroke-width:1.25;"/>
   </g>
   <g id="patch_6">
    <path d="M 126 86.4 
L 907.2 86.4 
" style="fill:none;stroke:#cccccc;stroke-linecap:square;stroke-linejoin:miter;stroke-width:1.25;"/>
   </g>
   <g id="text_14">
    <!-- Train loss -->
    <g style="fill:#262626;" transform="translate(485.663625 80.4)scale(0.144 -0.144)">
     <defs>
      <path d="M 25.921875 0 
L 25.921875 63.140625 
L 2.34375 63.140625 
L 2.34375 71.578125 
L 59.078125 71.578125 
L 59.078125 63.140625 
L 35.40625 63.140625 
L 35.40625 0 
z
" id="ArialMT-84"/>
      <path d="M 6.5 0 
L 6.5 51.859375 
L 14.40625 51.859375 
L 14.40625 44 
Q 17.4375 49.515625 20 51.265625 
Q 22.5625 53.03125 25.640625 53.03125 
Q 30.078125 53.03125 34.671875 50.203125 
L 31.640625 42.046875 
Q 28.421875 43.953125 25.203125 43.953125 
Q 22.3125 43.953125 20.015625 42.21875 
Q 17.71875 40.484375 16.75 37.40625 
Q 15.28125 32.71875 15.28125 27.15625 
L 15.28125 0 
z
" id="ArialMT-114"/>
      <path d="M 40.4375 6.390625 
Q 35.546875 2.25 31.03125 0.53125 
Q 26.515625 -1.171875 21.34375 -1.171875 
Q 12.796875 -1.171875 8.203125 3 
Q 3.609375 7.171875 3.609375 13.671875 
Q 3.609375 17.484375 5.34375 20.625 
Q 7.078125 23.78125 9.890625 25.6875 
Q 12.703125 27.59375 16.21875 28.5625 
Q 18.796875 29.25 24.03125 29.890625 
Q 34.671875 31.15625 39.703125 32.90625 
Q 39.75 34.71875 39.75 35.203125 
Q 39.75 40.578125 37.25 42.78125 
Q 33.890625 45.75 27.25 45.75 
Q 21.046875 45.75 18.09375 43.578125 
Q 15.140625 41.40625 13.71875 35.890625 
L 5.125 37.0625 
Q 6.296875 42.578125 8.984375 45.96875 
Q 11.671875 49.359375 16.75 51.1875 
Q 21.828125 53.03125 28.515625 53.03125 
Q 35.15625 53.03125 39.296875 51.46875 
Q 43.453125 49.90625 45.40625 47.53125 
Q 47.359375 45.171875 48.140625 41.546875 
Q 48.578125 39.3125 48.578125 33.453125 
L 48.578125 21.734375 
Q 48.578125 9.46875 49.140625 6.21875 
Q 49.703125 2.984375 51.375 0 
L 42.1875 0 
Q 40.828125 2.734375 40.4375 6.390625 
z
M 39.703125 26.03125 
Q 34.90625 24.078125 25.34375 22.703125 
Q 19.921875 21.921875 17.671875 20.9375 
Q 15.4375 19.96875 14.203125 18.09375 
Q 12.984375 16.21875 12.984375 13.921875 
Q 12.984375 10.40625 15.640625 8.0625 
Q 18.3125 5.71875 23.4375 5.71875 
Q 28.515625 5.71875 32.46875 7.9375 
Q 36.421875 10.15625 38.28125 14.015625 
Q 39.703125 17 39.703125 22.796875 
z
" id="ArialMT-97"/>
      <path d="M 6.640625 61.46875 
L 6.640625 71.578125 
L 15.4375 71.578125 
L 15.4375 61.46875 
z
M 6.640625 0 
L 6.640625 51.859375 
L 15.4375 51.859375 
L 15.4375 0 
z
" id="ArialMT-105"/>
      <path d="M 6.59375 0 
L 6.59375 51.859375 
L 14.5 51.859375 
L 14.5 44.484375 
Q 20.21875 53.03125 31 53.03125 
Q 35.6875 53.03125 39.625 51.34375 
Q 43.5625 49.65625 45.515625 46.921875 
Q 47.46875 44.1875 48.25 40.4375 
Q 48.734375 37.984375 48.734375 31.890625 
L 48.734375 0 
L 39.9375 0 
L 39.9375 31.546875 
Q 39.9375 36.921875 38.90625 39.578125 
Q 37.890625 42.234375 35.28125 43.8125 
Q 32.671875 45.40625 29.15625 45.40625 
Q 23.53125 45.40625 19.453125 41.84375 
Q 15.375 38.28125 15.375 28.328125 
L 15.375 0 
z
" id="ArialMT-110"/>
      <path id="ArialMT-32"/>
      <path d="M 6.390625 0 
L 6.390625 71.578125 
L 15.1875 71.578125 
L 15.1875 0 
z
" id="ArialMT-108"/>
      <path d="M 3.328125 25.921875 
Q 3.328125 40.328125 11.328125 47.265625 
Q 18.015625 53.03125 27.640625 53.03125 
Q 38.328125 53.03125 45.109375 46.015625 
Q 51.90625 39.015625 51.90625 26.65625 
Q 51.90625 16.65625 48.90625 10.90625 
Q 45.90625 5.171875 40.15625 2 
Q 34.421875 -1.171875 27.640625 -1.171875 
Q 16.75 -1.171875 10.03125 5.8125 
Q 3.328125 12.796875 3.328125 25.921875 
z
M 12.359375 25.921875 
Q 12.359375 15.96875 16.703125 11.015625 
Q 21.046875 6.0625 27.640625 6.0625 
Q 34.1875 6.0625 38.53125 11.03125 
Q 42.875 16.015625 42.875 26.21875 
Q 42.875 35.84375 38.5 40.796875 
Q 34.125 45.75 27.640625 45.75 
Q 21.046875 45.75 16.703125 40.8125 
Q 12.359375 35.890625 12.359375 25.921875 
z
" id="ArialMT-111"/>
      <path d="M 3.078125 15.484375 
L 11.765625 16.84375 
Q 12.5 11.625 15.84375 8.84375 
Q 19.1875 6.0625 25.203125 6.0625 
Q 31.25 6.0625 34.171875 8.515625 
Q 37.109375 10.984375 37.109375 14.3125 
Q 37.109375 17.28125 34.515625 19 
Q 32.71875 20.171875 25.53125 21.96875 
Q 15.875 24.421875 12.140625 26.203125 
Q 8.40625 27.984375 6.46875 31.125 
Q 4.546875 34.28125 4.546875 38.09375 
Q 4.546875 41.546875 6.125 44.5 
Q 7.71875 47.46875 10.453125 49.421875 
Q 12.5 50.921875 16.03125 51.96875 
Q 19.578125 53.03125 23.640625 53.03125 
Q 29.734375 53.03125 34.34375 51.265625 
Q 38.96875 49.515625 41.15625 46.5 
Q 43.359375 43.5 44.1875 38.484375 
L 35.59375 37.3125 
Q 35.015625 41.3125 32.203125 43.546875 
Q 29.390625 45.796875 24.265625 45.796875 
Q 18.21875 45.796875 15.625 43.796875 
Q 13.03125 41.796875 13.03125 39.109375 
Q 13.03125 37.40625 14.109375 36.03125 
Q 15.1875 34.625 17.484375 33.6875 
Q 18.796875 33.203125 25.25 31.453125 
Q 34.578125 28.953125 38.25 27.359375 
Q 41.9375 25.78125 44.03125 22.75 
Q 46.140625 19.734375 46.140625 15.234375 
Q 46.140625 10.84375 43.578125 6.953125 
Q 41.015625 3.078125 36.171875 0.953125 
Q 31.34375 -1.171875 25.25 -1.171875 
Q 15.140625 -1.171875 9.84375 3.03125 
Q 4.546875 7.234375 3.078125 15.484375 
z
" id="ArialMT-115"/>
     </defs>
     <use xlink:href="#ArialMT-84"/>
     <use x="57.333984" xlink:href="#ArialMT-114"/>
     <use x="90.634766" xlink:href="#ArialMT-97"/>
     <use x="146.25" xlink:href="#ArialMT-105"/>
     <use x="168.466797" xlink:href="#ArialMT-110"/>
     <use x="224.082031" xlink:href="#ArialMT-32"/>
     <use x="251.865234" xlink:href="#ArialMT-108"/>
     <use x="274.082031" xlink:href="#ArialMT-111"/>
     <use x="329.697266" xlink:href="#ArialMT-115"/>
     <use x="379.697266" xlink:href="#ArialMT-115"/>
    </g>
   </g>
   <g id="legend_1">
    <g id="patch_7">
     <path d="M 783.084938 190.789312 
L 897.96 190.789312 
Q 900.6 190.789312 900.6 188.149312 
L 900.6 95.64 
Q 900.6 93 897.96 93 
L 783.084938 93 
Q 780.444938 93 780.444938 95.64 
L 780.444938 188.149312 
Q 780.444938 190.789312 783.084938 190.789312 
z
" style="fill:#ffffff;opacity:0.8;stroke:#cccccc;stroke-linejoin:miter;"/>
    </g>
    <g id="line2d_19">
     <path d="M 785.724938 103.108312 
L 812.124937 103.108312 
" style="fill:none;stroke:#01befe;stroke-linecap:round;stroke-width:1.5;"/>
    </g>
    <g id="line2d_20"/>
    <g id="text_15">
     <!-- Relu -->
     <g style="fill:#262626;" transform="translate(822.684938 107.728312)scale(0.132 -0.132)">
      <defs>
       <path d="M 7.859375 0 
L 7.859375 71.578125 
L 39.59375 71.578125 
Q 49.171875 71.578125 54.140625 69.640625 
Q 59.125 67.71875 62.109375 62.828125 
Q 65.09375 57.953125 65.09375 52.046875 
Q 65.09375 44.4375 60.15625 39.203125 
Q 55.21875 33.984375 44.921875 32.5625 
Q 48.6875 30.765625 50.640625 29 
Q 54.78125 25.203125 58.5 19.484375 
L 70.953125 0 
L 59.03125 0 
L 49.5625 14.890625 
Q 45.40625 21.34375 42.71875 24.75 
Q 40.046875 28.171875 37.921875 29.53125 
Q 35.796875 30.90625 33.59375 31.453125 
Q 31.984375 31.78125 28.328125 31.78125 
L 17.328125 31.78125 
L 17.328125 0 
z
M 17.328125 39.984375 
L 37.703125 39.984375 
Q 44.1875 39.984375 47.84375 41.328125 
Q 51.515625 42.671875 53.421875 45.625 
Q 55.328125 48.578125 55.328125 52.046875 
Q 55.328125 57.125 51.640625 60.390625 
Q 47.953125 63.671875 39.984375 63.671875 
L 17.328125 63.671875 
z
" id="ArialMT-82"/>
       <path d="M 42.09375 16.703125 
L 51.171875 15.578125 
Q 49.03125 7.625 43.21875 3.21875 
Q 37.40625 -1.171875 28.375 -1.171875 
Q 17 -1.171875 10.328125 5.828125 
Q 3.65625 12.84375 3.65625 25.484375 
Q 3.65625 38.578125 10.390625 45.796875 
Q 17.140625 53.03125 27.875 53.03125 
Q 38.28125 53.03125 44.875 45.953125 
Q 51.46875 38.875 51.46875 26.03125 
Q 51.46875 25.25 51.421875 23.6875 
L 12.75 23.6875 
Q 13.234375 15.140625 17.578125 10.59375 
Q 21.921875 6.0625 28.421875 6.0625 
Q 33.25 6.0625 36.671875 8.59375 
Q 40.09375 11.140625 42.09375 16.703125 
z
M 13.234375 30.90625 
L 42.1875 30.90625 
Q 41.609375 37.453125 38.875 40.71875 
Q 34.671875 45.796875 27.984375 45.796875 
Q 21.921875 45.796875 17.796875 41.75 
Q 13.671875 37.703125 13.234375 30.90625 
z
" id="ArialMT-101"/>
       <path d="M 40.578125 0 
L 40.578125 7.625 
Q 34.515625 -1.171875 24.125 -1.171875 
Q 19.53125 -1.171875 15.546875 0.578125 
Q 11.578125 2.34375 9.640625 5 
Q 7.71875 7.671875 6.9375 11.53125 
Q 6.390625 14.109375 6.390625 19.734375 
L 6.390625 51.859375 
L 15.1875 51.859375 
L 15.1875 23.09375 
Q 15.1875 16.21875 15.71875 13.8125 
Q 16.546875 10.359375 19.234375 8.375 
Q 21.921875 6.390625 25.875 6.390625 
Q 29.828125 6.390625 33.296875 8.421875 
Q 36.765625 10.453125 38.203125 13.9375 
Q 39.65625 17.4375 39.65625 24.078125 
L 39.65625 51.859375 
L 48.4375 51.859375 
L 48.4375 0 
z
" id="ArialMT-117"/>
      </defs>
      <use xlink:href="#ArialMT-82"/>
      <use x="72.216797" xlink:href="#ArialMT-101"/>
      <use x="127.832031" xlink:href="#ArialMT-108"/>
      <use x="150.048828" xlink:href="#ArialMT-117"/>
     </g>
    </g>
    <g id="line2d_21">
     <path d="M 785.724938 121.780125 
L 812.124937 121.780125 
" style="fill:none;stroke:#ff0000;stroke-linecap:round;stroke-width:3;"/>
    </g>
    <g id="line2d_22"/>
    <g id="text_16">
     <!-- ELU -->
     <g style="fill:#262626;" transform="translate(822.684938 126.400125)scale(0.132 -0.132)">
      <defs>
       <path d="M 7.90625 0 
L 7.90625 71.578125 
L 59.671875 71.578125 
L 59.671875 63.140625 
L 17.390625 63.140625 
L 17.390625 41.21875 
L 56.984375 41.21875 
L 56.984375 32.8125 
L 17.390625 32.8125 
L 17.390625 8.453125 
L 61.328125 8.453125 
L 61.328125 0 
z
" id="ArialMT-69"/>
       <path d="M 7.328125 0 
L 7.328125 71.578125 
L 16.796875 71.578125 
L 16.796875 8.453125 
L 52.046875 8.453125 
L 52.046875 0 
z
" id="ArialMT-76"/>
       <path d="M 54.6875 71.578125 
L 64.15625 71.578125 
L 64.15625 30.21875 
Q 64.15625 19.4375 61.71875 13.078125 
Q 59.28125 6.734375 52.90625 2.75 
Q 46.53125 -1.21875 36.1875 -1.21875 
Q 26.125 -1.21875 19.71875 2.25 
Q 13.328125 5.71875 10.59375 12.28125 
Q 7.859375 18.84375 7.859375 30.21875 
L 7.859375 71.578125 
L 17.328125 71.578125 
L 17.328125 30.28125 
Q 17.328125 20.953125 19.0625 16.53125 
Q 20.796875 12.109375 25.015625 9.71875 
Q 29.25 7.328125 35.359375 7.328125 
Q 45.796875 7.328125 50.234375 12.0625 
Q 54.6875 16.796875 54.6875 30.28125 
z
" id="ArialMT-85"/>
      </defs>
      <use xlink:href="#ArialMT-69"/>
      <use x="66.699219" xlink:href="#ArialMT-76"/>
      <use x="122.314453" xlink:href="#ArialMT-85"/>
     </g>
    </g>
    <g id="line2d_23">
     <path d="M 785.724938 140.612812 
L 812.124937 140.612812 
" style="fill:none;stroke:#0000ff;stroke-linecap:round;stroke-width:1.5;"/>
    </g>
    <g id="line2d_24"/>
    <g id="text_17">
     <!-- Sigmoid -->
     <g style="fill:#262626;" transform="translate(822.684938 145.232812)scale(0.132 -0.132)">
      <defs>
       <path d="M 4.5 23 
L 13.421875 23.78125 
Q 14.0625 18.40625 16.375 14.96875 
Q 18.703125 11.53125 23.578125 9.40625 
Q 28.46875 7.28125 34.578125 7.28125 
Q 39.984375 7.28125 44.140625 8.890625 
Q 48.296875 10.5 50.3125 13.296875 
Q 52.34375 16.109375 52.34375 19.4375 
Q 52.34375 22.796875 50.390625 25.3125 
Q 48.4375 27.828125 43.953125 29.546875 
Q 41.0625 30.671875 31.203125 33.03125 
Q 21.34375 35.40625 17.390625 37.5 
Q 12.25 40.1875 9.734375 44.15625 
Q 7.234375 48.140625 7.234375 53.078125 
Q 7.234375 58.5 10.296875 63.203125 
Q 13.375 67.921875 19.28125 70.359375 
Q 25.203125 72.796875 32.421875 72.796875 
Q 40.375 72.796875 46.453125 70.234375 
Q 52.546875 67.671875 55.8125 62.6875 
Q 59.078125 57.71875 59.328125 51.421875 
L 50.25 50.734375 
Q 49.515625 57.515625 45.28125 60.984375 
Q 41.0625 64.453125 32.8125 64.453125 
Q 24.21875 64.453125 20.28125 61.296875 
Q 16.359375 58.15625 16.359375 53.71875 
Q 16.359375 49.859375 19.140625 47.359375 
Q 21.875 44.875 33.421875 42.265625 
Q 44.96875 39.65625 49.265625 37.703125 
Q 55.515625 34.8125 58.484375 30.390625 
Q 61.46875 25.984375 61.46875 20.21875 
Q 61.46875 14.5 58.203125 9.4375 
Q 54.9375 4.390625 48.796875 1.578125 
Q 42.671875 -1.21875 35.015625 -1.21875 
Q 25.296875 -1.21875 18.71875 1.609375 
Q 12.15625 4.4375 8.421875 10.125 
Q 4.6875 15.828125 4.5 23 
z
" id="ArialMT-83"/>
       <path d="M 4.984375 -4.296875 
L 13.53125 -5.5625 
Q 14.0625 -9.515625 16.5 -11.328125 
Q 19.78125 -13.765625 25.4375 -13.765625 
Q 31.546875 -13.765625 34.859375 -11.328125 
Q 38.1875 -8.890625 39.359375 -4.5 
Q 40.046875 -1.8125 39.984375 6.78125 
Q 34.234375 0 25.640625 0 
Q 14.9375 0 9.078125 7.71875 
Q 3.21875 15.4375 3.21875 26.21875 
Q 3.21875 33.640625 5.90625 39.90625 
Q 8.59375 46.1875 13.6875 49.609375 
Q 18.796875 53.03125 25.6875 53.03125 
Q 34.859375 53.03125 40.828125 45.609375 
L 40.828125 51.859375 
L 48.921875 51.859375 
L 48.921875 7.03125 
Q 48.921875 -5.078125 46.453125 -10.125 
Q 44 -15.1875 38.640625 -18.109375 
Q 33.296875 -21.046875 25.484375 -21.046875 
Q 16.21875 -21.046875 10.5 -16.875 
Q 4.78125 -12.703125 4.984375 -4.296875 
z
M 12.25 26.859375 
Q 12.25 16.65625 16.296875 11.96875 
Q 20.359375 7.28125 26.46875 7.28125 
Q 32.515625 7.28125 36.609375 11.9375 
Q 40.71875 16.609375 40.71875 26.5625 
Q 40.71875 36.078125 36.5 40.90625 
Q 32.28125 45.75 26.3125 45.75 
Q 20.453125 45.75 16.34375 40.984375 
Q 12.25 36.234375 12.25 26.859375 
z
" id="ArialMT-103"/>
       <path d="M 6.59375 0 
L 6.59375 51.859375 
L 14.453125 51.859375 
L 14.453125 44.578125 
Q 16.890625 48.390625 20.9375 50.703125 
Q 25 53.03125 30.171875 53.03125 
Q 35.9375 53.03125 39.625 50.640625 
Q 43.3125 48.25 44.828125 43.953125 
Q 50.984375 53.03125 60.84375 53.03125 
Q 68.5625 53.03125 72.703125 48.75 
Q 76.859375 44.484375 76.859375 35.59375 
L 76.859375 0 
L 68.109375 0 
L 68.109375 32.671875 
Q 68.109375 37.9375 67.25 40.25 
Q 66.40625 42.578125 64.15625 43.984375 
Q 61.921875 45.40625 58.890625 45.40625 
Q 53.421875 45.40625 49.796875 41.765625 
Q 46.1875 38.140625 46.1875 30.125 
L 46.1875 0 
L 37.40625 0 
L 37.40625 33.6875 
Q 37.40625 39.546875 35.25 42.46875 
Q 33.109375 45.40625 28.21875 45.40625 
Q 24.515625 45.40625 21.359375 43.453125 
Q 18.21875 41.5 16.796875 37.734375 
Q 15.375 33.984375 15.375 26.90625 
L 15.375 0 
z
" id="ArialMT-109"/>
       <path d="M 40.234375 0 
L 40.234375 6.546875 
Q 35.296875 -1.171875 25.734375 -1.171875 
Q 19.53125 -1.171875 14.328125 2.25 
Q 9.125 5.671875 6.265625 11.796875 
Q 3.421875 17.921875 3.421875 25.875 
Q 3.421875 33.640625 6 39.96875 
Q 8.59375 46.296875 13.765625 49.65625 
Q 18.953125 53.03125 25.34375 53.03125 
Q 30.03125 53.03125 33.6875 51.046875 
Q 37.359375 49.078125 39.65625 45.90625 
L 39.65625 71.578125 
L 48.390625 71.578125 
L 48.390625 0 
z
M 12.453125 25.875 
Q 12.453125 15.921875 16.640625 10.984375 
Q 20.84375 6.0625 26.5625 6.0625 
Q 32.328125 6.0625 36.34375 10.765625 
Q 40.375 15.484375 40.375 25.140625 
Q 40.375 35.796875 36.265625 40.765625 
Q 32.171875 45.75 26.171875 45.75 
Q 20.3125 45.75 16.375 40.96875 
Q 12.453125 36.1875 12.453125 25.875 
z
" id="ArialMT-100"/>
      </defs>
      <use xlink:href="#ArialMT-83"/>
      <use x="66.699219" xlink:href="#ArialMT-105"/>
      <use x="88.916016" xlink:href="#ArialMT-103"/>
      <use x="144.53125" xlink:href="#ArialMT-109"/>
      <use x="227.832031" xlink:href="#ArialMT-111"/>
      <use x="283.447266" xlink:href="#ArialMT-105"/>
      <use x="305.664062" xlink:href="#ArialMT-100"/>
     </g>
    </g>
    <g id="line2d_25">
     <path d="M 785.724938 159.439312 
L 812.124937 159.439312 
" style="fill:none;stroke:#008000;stroke-linecap:round;stroke-width:1.5;"/>
    </g>
    <g id="line2d_26"/>
    <g id="text_18">
     <!-- Tanh -->
     <g style="fill:#262626;" transform="translate(822.684938 164.059312)scale(0.132 -0.132)">
      <defs>
       <path d="M 6.59375 0 
L 6.59375 71.578125 
L 15.375 71.578125 
L 15.375 45.90625 
Q 21.53125 53.03125 30.90625 53.03125 
Q 36.671875 53.03125 40.921875 50.75 
Q 45.171875 48.484375 47 44.484375 
Q 48.828125 40.484375 48.828125 32.859375 
L 48.828125 0 
L 40.046875 0 
L 40.046875 32.859375 
Q 40.046875 39.453125 37.1875 42.453125 
Q 34.328125 45.453125 29.109375 45.453125 
Q 25.203125 45.453125 21.75 43.421875 
Q 18.3125 41.40625 16.84375 37.9375 
Q 15.375 34.46875 15.375 28.375 
L 15.375 0 
z
" id="ArialMT-104"/>
      </defs>
      <use xlink:href="#ArialMT-84"/>
      <use x="49.958984" xlink:href="#ArialMT-97"/>
      <use x="105.574219" xlink:href="#ArialMT-110"/>
      <use x="161.189453" xlink:href="#ArialMT-104"/>
     </g>
    </g>
    <g id="line2d_27">
     <path d="M 785.724938 178.111125 
L 812.124937 178.111125 
" style="fill:none;stroke:#ffff00;stroke-linecap:round;stroke-width:1.5;"/>
    </g>
    <g id="line2d_28"/>
    <g id="text_19">
     <!-- Leaky ReLU -->
     <g style="fill:#262626;" transform="translate(822.684938 182.731125)scale(0.132 -0.132)">
      <defs>
       <path d="M 6.640625 0 
L 6.640625 71.578125 
L 15.4375 71.578125 
L 15.4375 30.765625 
L 36.234375 51.859375 
L 47.609375 51.859375 
L 27.78125 32.625 
L 49.609375 0 
L 38.765625 0 
L 21.625 26.515625 
L 15.4375 20.5625 
L 15.4375 0 
z
" id="ArialMT-107"/>
       <path d="M 6.203125 -19.96875 
L 5.21875 -11.71875 
Q 8.109375 -12.5 10.25 -12.5 
Q 13.1875 -12.5 14.9375 -11.515625 
Q 16.703125 -10.546875 17.828125 -8.796875 
Q 18.65625 -7.46875 20.515625 -2.25 
Q 20.75 -1.515625 21.296875 -0.09375 
L 1.609375 51.859375 
L 11.078125 51.859375 
L 21.875 21.828125 
Q 23.96875 16.109375 25.640625 9.8125 
Q 27.15625 15.875 29.25 21.625 
L 40.328125 51.859375 
L 49.125 51.859375 
L 29.390625 -0.875 
Q 26.21875 -9.421875 24.46875 -12.640625 
Q 22.125 -17 19.09375 -19.015625 
Q 16.0625 -21.046875 11.859375 -21.046875 
Q 9.328125 -21.046875 6.203125 -19.96875 
z
" id="ArialMT-121"/>
      </defs>
      <use xlink:href="#ArialMT-76"/>
      <use x="55.615234" xlink:href="#ArialMT-101"/>
      <use x="111.230469" xlink:href="#ArialMT-97"/>
      <use x="166.845703" xlink:href="#ArialMT-107"/>
      <use x="216.845703" xlink:href="#ArialMT-121"/>
      <use x="266.845703" xlink:href="#ArialMT-32"/>
      <use x="294.628906" xlink:href="#ArialMT-82"/>
      <use x="366.845703" xlink:href="#ArialMT-101"/>
      <use x="422.460938" xlink:href="#ArialMT-76"/>
      <use x="478.076172" xlink:href="#ArialMT-85"/>
     </g>
    </g>
   </g>
  </g>
 </g>
 <defs>
  <clipPath id="pbda1dbd9a5">
   <rect height="554.4" width="781.2" x="126" y="86.4"/>
  </clipPath>
 </defs>
</svg>
